<svg width="80" height="80" viewBox="0 0 80 80" fill="none" xmlns="http://www.w3.org/2000/svg">
<g clip-path="url(#clip0)">
<path d="M59.2691 20.7358C58.9575 16.2479 57.1013 11.8462 53.6718 8.41665C46.121 0.865878 33.8796 0.865878 26.3288 8.41665C22.8994 11.8461 21.0453 16.2457 20.7317 20.7313C16.2438 21.0473 11.8465 22.899 8.41698 26.3285C0.866215 33.8793 0.866215 46.1207 8.41698 53.6715C11.8465 57.1009 16.2483 58.9572 20.7317 59.2687C21.0455 63.7544 22.8994 68.1539 26.3288 71.5833C33.8796 79.1341 46.121 79.1341 53.6718 71.5833C57.1013 68.1539 58.9553 63.7543 59.269 59.2687C63.7547 58.9549 68.1542 57.1009 71.5837 53.6715C79.1344 46.1207 79.1344 33.8793 71.5837 26.3285C68.1542 22.899 63.7523 21.0427 59.269 20.7313L59.2691 20.7358ZM49.8999 12.1886C55.3578 17.6466 55.3578 26.5296 49.8998 31.9876C47.4184 34.4691 44.2231 35.764 40.9658 35.9851C40.2234 32.4496 38.5042 29.0776 35.7574 26.3307C33.0105 23.5839 29.6409 21.8494 26.1055 21.1028C26.3309 17.8545 27.6236 14.6659 30.1006 12.1889C35.5585 6.73094 44.4419 6.73065 49.8999 12.1886ZM12.189 30.1005C17.647 24.6425 26.53 24.6425 31.988 30.1005C34.4695 32.582 35.7644 35.7772 35.9922 39.0324C32.4522 39.7748 29.078 41.4962 26.3311 44.2431C23.5842 46.99 21.8498 50.3596 21.1009 53.8972C17.8548 53.6696 14.6639 52.3747 12.1892 49.9C6.73121 44.442 6.73104 35.5584 12.189 30.1005ZM30.1009 67.8113C24.6429 62.3534 24.6429 53.4703 30.1009 48.0123C32.5824 45.5308 35.7776 44.2359 39.035 44.0103C39.7774 47.5503 41.4966 50.9223 44.2434 53.6692C46.9903 56.4161 50.3599 58.1505 53.8953 58.8971C53.6699 62.1454 52.3773 65.334 49.9002 67.811C44.4423 73.269 35.5588 73.2693 30.1009 67.8113ZM67.8117 49.8995C62.3538 55.3574 53.4707 55.3574 48.0127 49.8995C45.5312 47.418 44.2363 44.2227 44.0085 40.9676C47.5485 40.2251 50.9227 38.5037 53.6696 35.7568C56.4165 33.0099 58.1509 29.6403 58.8998 26.1027C62.1459 26.3303 65.3368 27.6252 67.8115 30.1C73.2695 35.5579 73.2697 44.4415 67.8117 49.8995Z" fill="#C6FCE5"/>
<path fill-rule="evenodd" clip-rule="evenodd" d="M7.00277 55.0857C-1.32905 46.7539 -1.32905 33.2461 7.00277 24.9143C10.3618 21.5552 14.5626 19.5685 18.9191 18.9194C19.5672 14.5634 21.556 10.361 24.9146 7.00243C33.2464 -1.32938 46.7542 -1.32939 55.086 7.00243C58.4431 10.3595 60.4337 14.5616 61.0815 18.9183C65.4365 19.5655 69.6401 21.5565 72.9979 24.9143C81.3297 33.2461 81.3297 46.7539 72.9979 55.0857C69.6394 58.4442 65.4373 60.4329 61.0815 61.0811C60.4334 65.4369 58.4445 69.6391 55.086 72.9976C46.7542 81.3294 33.2465 81.3294 24.9146 72.9976C21.5563 69.6392 19.5676 65.4373 18.9193 61.0817C14.5642 60.4345 10.3606 58.4436 7.00277 55.0857ZM59.2648 20.7923L59.1304 22.7265C63.1552 23.0061 67.097 24.6703 70.1695 27.7427C76.9392 34.5124 76.9392 45.4875 70.1695 52.2573C67.0974 55.3293 63.1579 56.9917 59.1294 57.2735L57.3951 57.3948L57.2739 59.1291C56.9922 63.1574 55.3297 67.0971 52.2576 70.1691C45.4879 76.9389 34.5128 76.9389 27.7431 70.1691C24.671 67.0971 23.0086 63.1575 22.7268 59.1291L22.6054 57.394L20.8703 57.2735C16.8455 56.9939 12.9036 55.3297 9.8312 52.2573C3.06148 45.4875 3.06148 34.5124 9.8312 27.7427C12.9029 24.671 16.8403 23.0103 20.8721 22.7264L22.6056 22.6043L22.7268 20.8709C23.0085 16.8426 24.671 12.9029 27.7431 9.83086C34.5128 3.06114 45.4879 3.06114 52.2576 9.83086C55.3299 12.9032 56.9941 16.8447 57.2739 20.8743L59.2648 20.7923ZM9.90199 29.5591L10.7748 28.6863C17.0138 22.4473 27.1632 22.4473 33.4022 28.6863C36.2555 31.5396 37.729 35.2021 37.9873 38.8927L38.109 40.6319L36.4027 40.9898C33.2228 41.6567 30.2033 43.1993 27.7453 45.6573C25.2837 48.1189 23.7297 51.1363 23.0575 54.3114L22.6971 56.014L20.961 55.8923C17.2789 55.6342 13.6211 54.1603 10.775 51.3142C4.8355 45.3747 4.55033 35.8914 9.91944 29.6116L9.90199 29.5591ZM13.6801 31.4385L13.6034 31.5152C8.92647 36.1921 8.92647 43.8088 13.6034 48.4858C15.2959 50.1782 17.3901 51.2314 19.6078 51.6809C20.5915 48.4437 22.3555 45.3903 24.9169 42.8289C27.4804 40.2653 30.5382 38.5116 33.776 37.5355C33.3262 35.3111 32.2717 33.2126 30.5738 31.5147C25.9224 26.8633 18.3632 26.8379 13.6801 31.4385ZM28.3206 19.6087C31.557 20.5911 34.6104 22.3553 37.1716 24.9165C39.7356 27.4806 41.4878 30.5373 42.4633 33.7722C44.6881 33.3261 46.787 32.272 48.4856 30.5734C53.1391 25.9199 53.1624 18.3559 48.5555 13.6733L48.4854 13.6031C43.8084 8.9262 36.1917 8.9262 31.5148 13.6031C29.8205 15.2974 28.7685 17.3906 28.3206 19.6087ZM49.8117 9.44838C43.5398 4.57243 34.4465 5.01453 28.6864 10.7747C25.8377 13.6234 24.366 17.2794 24.1103 20.9644L23.9899 22.7001L25.6923 23.0596C28.8643 23.7295 31.8815 25.2833 34.3432 27.745C36.801 30.2028 38.3416 33.2202 39.0085 36.3961L39.3659 38.0983L41.1013 37.9805C44.7971 37.7296 48.4607 36.2552 51.3141 33.4018C57.5531 27.1628 57.5531 17.0134 51.3141 10.7744L49.8999 9.36018L49.8117 9.44838ZM31.4389 66.3203L31.5155 66.3968C36.1924 71.0737 43.8091 71.0737 48.486 66.3968C50.1804 64.7025 51.2324 62.6094 51.6802 60.3913C48.4438 59.4088 45.3904 57.6446 42.8292 55.0834C40.2653 52.5195 38.5131 49.4628 37.5376 46.2254C35.3121 46.6739 33.2133 47.7283 31.5151 49.4266C26.8637 54.0779 26.8383 61.6371 31.4389 66.3203ZM28.6866 69.2255C22.4476 62.9865 22.4476 52.8371 28.6866 46.5981C31.5401 43.7447 35.203 42.2709 38.8968 42.0151L40.6348 41.8948L40.9924 43.5998C41.6594 46.7801 43.1999 49.7973 45.6577 52.255C48.1193 54.7166 51.1365 56.2704 54.3086 56.9403L56.0109 57.2998L55.8905 59.0356C55.6348 62.7206 54.1631 66.3766 51.3145 69.2253C45.4843 75.0554 36.2395 75.4375 29.9618 70.3715L29.8865 70.4254L28.6866 69.2255ZM41.8917 39.368L43.598 39.0102C46.7779 38.3432 49.7974 36.8006 52.2554 34.3426C54.717 31.8811 56.271 28.8636 56.9432 25.6885L57.3036 23.9859L59.0397 24.1076C62.7218 24.3658 66.3796 25.8396 69.2258 28.6858C75.1631 34.6231 75.4502 44.1019 70.087 50.3817L70.1049 50.4347L69.2259 51.3137C62.9869 57.5527 52.8375 57.5527 46.5985 51.3137C43.7452 48.4604 42.2717 44.7979 42.0134 41.1072L41.8917 39.368ZM46.2247 42.4645C46.6745 44.6889 47.729 46.7873 49.4269 48.4853C54.0783 53.1366 61.6375 53.162 66.3207 48.5614L66.3973 48.4847C71.0742 43.8078 71.0742 36.1911 66.3973 31.5142C64.7049 29.8217 62.6106 28.7685 60.393 28.319C59.4092 31.5563 57.6453 34.6096 55.0838 37.171C52.5203 39.7346 49.4625 41.4883 46.2247 42.4645Z" fill="#C6FCE5"/>
</g>
<defs>
<clipPath id="clip0">
<path d="M0 0L80 0V80H0L0 0Z" fill="white"/>
</clipPath>
</defs>
</svg>
