<svg width="532" height="110" viewBox="0 0 532 110" fill="none" xmlns="http://www.w3.org/2000/svg">
<path d="M28.608 87.92C43.488 87.92 53.28 79.76 53.28 67.184C53.28 58.16 49.056 51.92 39.744 48.272L28.608 43.856C21.984 41.168 19.392 38.864 19.392 35.12C19.392 31.088 22.368 28.496 27.456 28.496C33.504 28.496 36.768 31.952 36.768 38.192H52.32C52.32 25.232 42.528 16.88 27.744 16.88C13.152 16.88 3.84 24.752 3.84 36.56C3.84 45.296 8.448 51.536 17.472 54.896L29.568 59.6C35.616 62 37.728 64.112 37.728 68.24C37.728 72.944 34.464 75.632 28.704 75.632C21.888 75.632 17.76 71.312 17.76 64.016H2.208C2.208 79.088 12.096 87.92 28.608 87.92ZM80.5425 87.248C86.9745 87.248 92.7345 84.08 95.2305 79.472V86H109.823V39.728H95.2305V46.352C92.7345 41.648 87.4545 38.48 80.7345 38.48C67.2945 38.48 58.7505 49.04 58.7505 62.864C58.7505 76.784 66.7185 87.248 80.5425 87.248ZM84.7665 75.056C77.9505 75.056 73.7265 69.872 73.7265 62.864C73.7265 55.856 77.9505 50.768 84.7665 50.768C92.0625 50.768 95.8065 56.24 95.8065 62.864C95.8065 69.584 92.0625 75.056 84.7665 75.056ZM146.305 74.576C142.657 74.576 139.873 73.52 139.873 66.704V51.344H150.337V39.728H139.873V26H125.185V39.728H117.889V51.344H125.185V69.776C125.185 85.232 134.689 86.768 141.601 86.768C145.825 86.768 149.281 86.384 151.393 86V74.288C150.049 74.48 148.129 74.576 146.305 74.576ZM176.406 87.248C183.414 87.248 188.214 84.272 190.806 79.376V86H205.398V39.728H190.806V64.592C190.806 70.832 188.118 74.864 181.878 74.864C176.31 74.864 174.198 71.408 174.198 65.072V39.728H159.318V68.336C159.318 80.336 165.27 87.248 176.406 87.248ZM217.548 86H232.236V68.144C232.236 57.008 237.228 52.688 244.428 52.688C246.252 52.688 247.116 52.784 248.844 52.976V39.344C247.692 39.056 246.732 38.96 245.004 38.96C239.34 38.96 233.868 42.512 232.236 49.424V39.728H217.548V86ZM288.541 18.8V42.416H288.637V46.352C286.141 41.648 280.861 38.48 274.141 38.48C260.701 38.48 252.157 49.04 252.157 62.864C252.157 76.784 260.125 87.248 273.949 87.248C280.381 87.248 286.141 84.08 288.637 79.472V86H303.229V18.8H288.541ZM278.173 75.056C271.357 75.056 267.133 69.872 267.133 62.864C267.133 55.856 271.357 50.768 278.173 50.768C285.469 50.768 289.213 56.24 289.213 62.864C289.213 69.584 285.469 75.056 278.173 75.056ZM333.855 87.248C340.287 87.248 346.047 84.08 348.543 79.472V86H363.135V39.728H348.543V46.352C346.047 41.648 340.767 38.48 334.047 38.48C320.607 38.48 312.063 49.04 312.063 62.864C312.063 76.784 320.031 87.248 333.855 87.248ZM338.079 75.056C331.263 75.056 327.039 69.872 327.039 62.864C327.039 55.856 331.263 50.768 338.079 50.768C345.375 50.768 349.119 56.24 349.119 62.864C349.119 69.584 345.375 75.056 338.079 75.056ZM406.625 39.728V62.672C406.625 69.776 403.649 74.384 397.697 74.384C391.553 74.384 389.537 70.352 389.537 64.4V39.728H374.849V66.608C374.849 78.128 380.129 86 391.937 86C398.945 86 404.033 83.216 406.625 78.32V85.52C406.625 92.72 403.073 95.888 397.697 95.888C392.129 95.888 389.921 93.584 389.633 89.648H374.849C374.945 94.64 377.249 98.96 380.609 101.84C384.449 105.008 389.825 106.64 397.697 106.64C405.473 106.64 410.561 104.816 414.689 101.264C418.625 97.712 421.313 92.048 421.313 84.56V39.728H406.625Z" fill="#C6FCE5"/>
<g clip-path="url(#clip0)">
<path d="M511.269 35.7358C510.957 31.2479 509.101 26.8462 505.672 23.4166C498.121 15.8659 485.88 15.8659 478.329 23.4166C474.899 26.8461 473.045 31.2457 472.732 35.7313C468.244 36.0473 463.846 37.899 460.417 41.3285C452.866 48.8793 452.866 61.1207 460.417 68.6715C463.846 72.1009 468.248 73.9572 472.732 74.2687C473.045 78.7544 474.899 83.1539 478.329 86.5833C485.88 94.1341 498.121 94.1341 505.672 86.5833C509.101 83.1539 510.955 78.7543 511.269 74.2687C515.755 73.9549 520.154 72.1009 523.584 68.6715C531.134 61.1207 531.134 48.8793 523.584 41.3285C520.154 37.899 515.752 36.0427 511.269 35.7313L511.269 35.7358ZM501.9 27.1886C507.358 32.6466 507.358 41.5296 501.9 46.9876C499.418 49.4691 496.223 50.764 492.966 50.9851C492.223 47.4496 490.504 44.0776 487.757 41.3307C485.011 38.5839 481.641 36.8494 478.106 36.1028C478.331 32.8545 479.624 29.6659 482.101 27.1889C487.559 21.7309 496.442 21.7307 501.9 27.1886ZM464.189 45.1005C469.647 39.6425 478.53 39.6425 483.988 45.1005C486.469 47.582 487.764 50.7772 487.992 54.0324C484.452 54.7748 481.078 56.4962 478.331 59.2431C475.584 61.99 473.85 65.3596 473.101 68.8972C469.855 68.6696 466.664 67.3747 464.189 64.9C458.731 59.442 458.731 50.5584 464.189 45.1005ZM482.101 82.8113C476.643 77.3534 476.643 68.4703 482.101 63.0123C484.582 60.5308 487.778 59.2359 491.035 59.0103C491.777 62.5503 493.497 65.9223 496.243 68.6692C498.99 71.4161 502.36 73.1505 505.895 73.8971C505.67 77.1454 504.377 80.334 501.9 82.811C496.442 88.269 487.559 88.2693 482.101 82.8113ZM519.812 64.8995C514.354 70.3574 505.471 70.3574 500.013 64.8995C497.531 62.418 496.236 59.2227 496.009 55.9676C499.549 55.2251 502.923 53.5037 505.67 50.7568C508.417 48.0099 510.151 44.6403 510.9 41.1027C514.146 41.3303 517.337 42.6252 519.812 45.1C525.27 50.5579 525.27 59.4415 519.812 64.8995Z" fill="#C6FCE5"/>
<path fill-rule="evenodd" clip-rule="evenodd" d="M459.003 70.0857C450.671 61.7539 450.671 48.2461 459.003 39.9143C462.362 36.5552 466.563 34.5685 470.919 33.9194C471.567 29.5634 473.556 25.361 476.915 22.0024C485.246 13.6706 498.754 13.6706 507.086 22.0024C510.443 25.3595 512.434 29.5616 513.081 33.9183C517.437 34.5655 521.64 36.5565 524.998 39.9143C533.33 48.2461 533.33 61.7539 524.998 70.0857C521.639 73.4442 517.437 75.4329 513.081 76.0811C512.433 80.4369 510.444 84.6391 507.086 87.9976C498.754 96.3294 485.246 96.3294 476.915 87.9976C473.556 84.6392 471.568 80.4373 470.919 76.0817C466.564 75.4345 462.361 73.4436 459.003 70.0857ZM511.265 35.7923L511.13 37.7265C515.155 38.0061 519.097 39.6703 522.169 42.7427C528.939 49.5124 528.939 60.4875 522.169 67.2573C519.097 70.3293 515.158 71.9917 511.129 72.2735L509.395 72.3948L509.274 74.1291C508.992 78.1574 507.33 82.0971 504.258 85.1691C497.488 91.9389 486.513 91.9389 479.743 85.1691C476.671 82.0971 475.009 78.1575 474.727 74.1291L474.605 72.394L472.87 72.2735C468.845 71.9939 464.904 70.3297 461.831 67.2573C455.061 60.4875 455.061 49.5124 461.831 42.7427C464.903 39.671 468.84 38.0103 472.872 37.7264L474.606 37.6043L474.727 35.8709C475.008 31.8426 476.671 27.9029 479.743 24.8309C486.513 18.0611 497.488 18.0611 504.258 24.8309C507.33 27.9032 508.994 31.8447 509.274 35.8743L511.265 35.7923ZM461.902 44.5591L462.775 43.6863C469.014 37.4473 479.163 37.4473 485.402 43.6863C488.256 46.5396 489.729 50.2021 489.987 53.8927L490.109 55.6319L488.403 55.9898C485.223 56.6567 482.203 58.1993 479.745 60.6573C477.284 63.1189 475.73 66.1363 475.057 69.3114L474.697 71.014L472.961 70.8923C469.279 70.6342 465.621 69.1603 462.775 66.3142C456.835 60.3747 456.55 50.8914 461.919 44.6116L461.902 44.5591ZM465.68 46.4385L465.603 46.5152C460.926 51.1921 460.926 58.8088 465.603 63.4858C467.296 65.1782 469.39 66.2314 471.608 66.6809C472.591 63.4437 474.355 60.3903 476.917 57.8289C479.48 55.2653 482.538 53.5116 485.776 52.5355C485.326 50.3111 484.272 48.2126 482.574 46.5147C477.922 41.8633 470.363 41.8379 465.68 46.4385ZM480.321 34.6087C483.557 35.5911 486.61 37.3553 489.172 39.9165C491.736 42.4806 493.488 45.5373 494.463 48.7722C496.688 48.3261 498.787 47.272 500.486 45.5734C505.139 40.9199 505.162 33.3559 500.556 28.6733L500.485 28.6031C495.808 23.9262 488.192 23.9262 483.515 28.6031C481.82 30.2974 480.768 32.3906 480.321 34.6087ZM501.812 24.4484C495.54 19.5724 486.447 20.0145 480.686 25.7747C477.838 28.6234 476.366 32.2794 476.11 35.9644L475.99 37.7001L477.692 38.0596C480.864 38.7295 483.882 40.2833 486.343 42.745C488.801 45.2028 490.342 48.2202 491.008 51.3961L491.366 53.0983L493.101 52.9805C496.797 52.7296 500.461 51.2552 503.314 48.4018C509.553 42.1628 509.553 32.0134 503.314 25.7744L501.9 24.3602L501.812 24.4484ZM483.439 81.3203L483.515 81.3968C488.192 86.0737 495.809 86.0737 500.486 81.3968C502.18 79.7025 503.232 77.6094 503.68 75.3913C500.444 74.4088 497.39 72.6446 494.829 70.0834C492.265 67.5195 490.513 64.4628 489.538 61.2254C487.312 61.6739 485.213 62.7283 483.515 64.4266C478.864 69.0779 478.838 76.6371 483.439 81.3203ZM480.687 84.2255C474.448 77.9865 474.448 67.8371 480.687 61.5981C483.54 58.7447 487.203 57.2709 490.897 57.0151L492.635 56.8948L492.992 58.5998C493.659 61.7801 495.2 64.7973 497.658 67.255C500.119 69.7166 503.137 71.2704 506.309 71.9403L508.011 72.2998L507.89 74.0356C507.635 77.7206 506.163 81.3766 503.314 84.2253C497.484 90.0554 488.24 90.4375 481.962 85.3715L481.887 85.4254L480.687 84.2255ZM493.892 54.368L495.598 54.0102C498.778 53.3432 501.797 51.8006 504.255 49.3426C506.717 46.8811 508.271 43.8636 508.943 40.6885L509.304 38.9859L511.04 39.1076C514.722 39.3658 518.38 40.8396 521.226 43.6858C527.163 49.6231 527.45 59.1019 522.087 65.3817L522.105 65.4347L521.226 66.3137C514.987 72.5527 504.838 72.5527 498.599 66.3137C495.745 63.4604 494.272 59.7979 494.013 56.1072L493.892 54.368ZM498.225 57.4645C498.675 59.6889 499.729 61.7873 501.427 63.4853C506.078 68.1366 513.638 68.162 518.321 63.5614L518.397 63.4847C523.074 58.8078 523.074 51.1911 518.397 46.5142C516.705 44.8217 514.611 43.7685 512.393 43.319C511.409 46.5563 509.645 49.6096 507.084 52.171C504.52 54.7346 501.462 56.4883 498.225 57.4645Z" fill="#C6FCE5"/>
</g>
<defs>
<clipPath id="clip0">
<path d="M452 15L532 15V95H452V15Z" fill="white"/>
</clipPath>
</defs>
</svg>
