<?xml version="1.0" standalone="no"?>
<!DOCTYPE svg PUBLIC "-//W3C//DTD SVG 20010904//EN"
 "http://www.w3.org/TR/2001/REC-SVG-20010904/DTD/svg10.dtd">
<svg version="1.0" xmlns="http://www.w3.org/2000/svg"
 width="700.000000pt" height="700.000000pt" viewBox="0 0 700.000000 700.000000"
 preserveAspectRatio="xMidYMid meet">
<metadata>
Created by potrace 1.11, written by Peter Selinger 2001-2013
</metadata>
<g transform="translate(0.000000,700.000000) scale(0.100000,-0.100000)"
fill="#000000" stroke="none">
<path d="M3488 6935 c-2 -1 -55 -5 -118 -8 -63 -4 -128 -9 -145 -12 -16 -3
-52 -10 -80 -15 -27 -6 -61 -12 -75 -15 -159 -30 -499 -181 -625 -277 -5 -5
-44 -33 -85 -65 -163 -123 -307 -279 -428 -463 -109 -165 -221 -440 -259 -640
l-19 -94 -84 -18 c-47 -9 -95 -19 -107 -22 -12 -2 -71 -21 -130 -41 -759 -255
-1266 -966 -1266 -1775 0 -73 9 -205 17 -245 2 -11 7 -42 10 -69 4 -27 9 -53
12 -58 3 -4 6 -20 8 -35 2 -16 12 -55 22 -88 10 -33 19 -64 20 -70 6 -34 92
-234 131 -305 97 -178 179 -287 332 -441 106 -107 183 -169 313 -253 173 -112
427 -215 624 -251 49 -9 92 -20 96 -23 3 -4 8 -23 11 -42 3 -19 8 -46 11 -60
6 -26 19 -81 21 -90 1 -3 5 -18 9 -35 4 -16 11 -39 16 -50 4 -11 22 -60 40
-110 105 -291 317 -582 573 -789 247 -200 594 -350 902 -391 22 -2 58 -7 80
-10 54 -8 296 -8 370 0 374 37 754 201 1035 447 313 274 517 619 603 1024 l23
109 60 12 c32 7 70 14 84 17 14 3 42 10 63 16 20 5 52 14 70 19 52 14 208 76
277 111 576 291 953 838 1026 1490 11 105 5 357 -11 440 -3 14 -8 45 -11 70
-3 25 -17 86 -29 135 -118 454 -398 841 -800 1105 -184 122 -488 240 -680 267
-49 6 -52 9 -58 53 -13 91 -61 260 -107 375 -143 361 -420 688 -760 898 -237
146 -545 245 -815 263 -44 2 -99 6 -122 8 -23 2 -43 3 -45 1z m201 -835 c387
-78 700 -354 810 -714 20 -64 25 -84 37 -146 10 -50 13 -266 4 -315 -17 -101
-20 -113 -46 -191 -90 -269 -297 -501 -549 -614 -72 -32 -188 -70 -214 -70
-11 0 -26 28 -50 93 -188 517 -600 928 -1116 1112 -44 16 -82 30 -83 31 -7 4
38 156 58 197 11 22 20 44 20 48 0 4 19 38 42 76 175 285 452 464 778 502 84
9 238 5 309 -9z m-1574 -1565 c328 -70 579 -249 733 -524 37 -67 101 -240 101
-276 1 -16 -17 -26 -92 -53 -504 -183 -893 -565 -1099 -1081 -16 -42 -32 -84
-34 -95 -2 -10 -5 -21 -7 -23 -15 -15 -211 55 -307 110 -275 155 -465 433
-516 753 -10 62 -11 209 -2 282 41 345 264 660 575 811 168 82 295 110 483
106 74 -2 149 -6 165 -10z m3319 -56 c453 -164 735 -628 674 -1107 -53 -416
-347 -762 -742 -877 -114 -32 -157 -38 -286 -39 -201 -2 -339 30 -502 116
-243 129 -429 354 -507 612 -29 95 -28 101 22 115 111 33 309 129 427 208 100
66 111 74 175 128 255 213 443 482 558 797 l32 88 35 -6 c19 -4 70 -19 114
-35z m-2135 -1571 c7 -24 31 -86 53 -138 190 -450 554 -809 1007 -995 61 -25
116 -45 124 -45 35 0 39 -26 17 -102 -69 -233 -221 -439 -420 -569 -412 -271
-958 -221 -1309 120 -37 37 -89 96 -116 131 -77 104 -160 290 -180 399 -2 14
-9 49 -14 76 -14 74 -6 289 13 370 48 198 132 357 262 495 120 127 256 214
419 269 122 41 129 41 144 -11z"/>
</g>
</svg>
